<?xml version="1.0" encoding="UTF-8" standalone="no"?>
<svg
   width="588.59998"
   viewBox="0 0 588.59998 105.2"
   version="1.1"
   id="svg26"
   sodipodi:docname="065e05652b09e7f9c6c402d9fad2bd90.svg"
   height="105.2"
   xmlns:inkscape="http://www.inkscape.org/namespaces/inkscape"
   xmlns:sodipodi="http://sodipodi.sourceforge.net/DTD/sodipodi-0.dtd"
   xmlns="http://www.w3.org/2000/svg"
   xmlns:svg="http://www.w3.org/2000/svg">
  <defs
     id="defs30" />
  <sodipodi:namedview
     id="namedview28"
     pagecolor="#ffffff"
     bordercolor="#666666"
     borderopacity="1.0"
     inkscape:pageshadow="2"
     inkscape:pageopacity="0.0"
     inkscape:pagecheckerboard="0" />
  <!-- Bola -->
  <circle
     cx="52.599998"
     cy="52.599998"
     r="52"
     fill="#1a5c2e"
     id="circle2" />
  <polygon
     points="87,108 65,108 59,88 76,76 93,88 "
     fill="#ffffff"
     id="polygon4"
     transform="translate(-23.4,-47.4)" />
  <polygon
     points="106,93 93,88 87,76 93,70 108,78 "
     fill="#ffffff"
     opacity="0.55"
     id="polygon6"
     transform="translate(-23.4,-47.4)" />
  <polygon
     points="106,120 94,116 87,102 110,92 116,108 "
     fill="#ffffff"
     opacity="0.45"
     id="polygon8"
     transform="translate(-23.4,-47.4)" />
  <polygon
     points="59,88 46,93 34,84 42,70 57,76 "
     fill="#ffffff"
     opacity="0.55"
     id="polygon10"
     transform="translate(-23.4,-47.4)" />
  <polygon
     points="59,100 56,116 44,122 34,106 46,96 "
     fill="#ffffff"
     opacity="0.45"
     id="polygon12"
     transform="translate(-23.4,-47.4)" />
  <polygon
     points="92,134 76,142 60,134 65,120 87,120 "
     fill="#ffffff"
     opacity="0.45"
     id="polygon14"
     transform="translate(-23.4,-47.4)" />
  <circle
     cx="52.599998"
     cy="52.599998"
     r="52"
     fill="none"
     stroke="#ffffff"
     stroke-width="1.2"
     opacity="0.3"
     id="circle16" />
  <!-- Nome: CANE em verde, LUDOS em amarelo -->
  <text
     x="128.60001"
     y="47.599998"
     font-family="sans-serif"
     font-size="58px"
     font-weight="800"
     fill="#1a5c2e"
     id="text18">CANE</text>
  <text
     x="314.60001"
     y="47.599998"
     font-family="sans-serif"
     font-size="58px"
     font-weight="800"
     fill="#f5c842"
     id="text20">LUDOS</text>
  <!-- Linha decorativa -->
  <rect
     x="128.60001"
     y="60.599998"
     width="460"
     height="5"
     rx="2.5"
     fill="#f5c842"
     id="rect22" />
  <!-- Tagline -->
  <text
     x="128.60001"
     y="92.599998"
     font-family="sans-serif"
     font-size="14px"
     fill="#5f5e5a"
     letter-spacing="5"
     id="text24">NOTÍCIAS DE FUTEBOL</text>
</svg>
